<?xml version="1.0" encoding="UTF-8"?>
<svg id="_Слой_1" data-name="Слой_1" xmlns="http://www.w3.org/2000/svg" version="1.1" viewBox="0 0 2000 2000">
  <!-- Generator: Adobe Illustrator 30.3.0, SVG Export Plug-In . SVG Version: 2.1.3 Build 182)  -->
  <defs>
    <style>
      .st0, .st1 {
        fill: #47505a;
      }

      .st1, .st2 {
        opacity: .78;
      }

      .st3 {
        fill: #bbbabf;
      }

      .st4 {
        fill: #26aa80;
      }
    </style>
  </defs>
  <polygon class="st3" points="382 1119 292.2 1059.5 382 1000 471.8 1059.5 382 1119"/>
  <polygon class="st1" points="382 1181.5 292.2 1122 382 1062.5 471.8 1122 382 1181.5"/>
  <polygon class="st4" points="382 1238 292.2 1178.5 382 1119 471.8 1178.5 382 1238"/>
  <g class="st2">
    <path class="st0" d="M598.6,1122.6v86.59h-41.96v-209.62h85.38c39.56,0,67.84,19.63,67.84,56.7,0,28.58-15.07,42.31-32.6,49.02,20.79,8.04,28.27,24.47,28.27,50.49v5.45c0,18.58,1.08,36.2,2.79,47.97h-41.19c-3.02-8.8-3.9-22.89-3.9-48.67v-5.52c0-23.99-8.74-32.41-36.12-32.41h-28.52ZM598.6,1088.67h31.9c20.31,0,37.04-5.44,37.04-28.63,0-19.39-14.02-26.54-31.15-26.54h-37.78v55.17Z"/>
    <path class="st0" d="M879.4,1117.73h-91.13v56.42h100.61l-5.14,35.04h-137.12v-209.62h136.6v35.31h-94.94v47.49h91.13v35.35Z"/>
    <path class="st0" d="M951.23,1147.3c3.01,19.04,15.41,31.46,37.76,31.46,23.89,0,32.21-10.38,32.21-25.2,0-19.04-11.52-26.86-41.81-35.47-48.57-13.46-65.16-30.89-65.16-61.17,0-38.87,31.11-60.09,71.04-60.09,50.3,0,71.58,26.15,73.99,59.84h-41.96c-2.59-15.46-10.12-27.22-32.41-27.22-18.79,0-28.05,8.72-28.05,23.28,0,15.64,10.51,20.08,40.22,28.7,53.51,15.64,67.56,37.03,67.56,67.1,0,34.18-22.7,63.35-77.59,63.35-45.76,0-75.47-23.05-78.03-64.58h42.23Z"/>
    <path class="st0" d="M1142.07,999.57v209.62h-42.73v-209.62h42.73Z"/>
    <path class="st0" d="M1189.58,999.57h72.85c63.7,0,98.71,38.98,98.71,100.38,0,68.13-36.8,109.24-100.37,109.24h-71.19v-209.62ZM1232.58,1175.53h27.73c37.1,0,56.64-27.79,56.64-74.93,0-38.95-17.52-66.83-56.33-66.83h-28.04v141.76Z"/>
    <path class="st0" d="M1441.25,999.57v209.62h-42.73v-209.62h42.73Z"/>
    <path class="st0" d="M1523.13,1159.4l-14.78,49.79h-41.99c2.75-8.16,61.01-200.36,64.08-209.62h55.25l67.38,209.62h-44.83l-15.89-49.79h-69.21ZM1583.94,1124.05c-13.03-42.48-22.11-72.48-26.86-92.05h-.34c-5.08,23.31-14.58,56.01-25.52,92.05h52.72Z"/>
  </g>
</svg>